<svg viewBox="0 0 581 154" xmlns="http://www.w3.org/2000/svg" xmlns:xlink="http://www.w3.org/1999/xlink"><clipPath id="a"><path d="m0 208h210v204h-210z"/></clipPath><mask id="b" height="289.92" maskUnits="userSpaceOnUse" width="514.04" x="-292.26" y="125.16"/><linearGradient id="c" gradientTransform="matrix(1 0 0 -1 0 768.72)" gradientUnits="userSpaceOnUse" x1="-35.24" x2="-35.24" y1="353.65" y2="643.57"><stop offset="0" stop-color="#fff"/><stop offset=".24" stop-color="#fbfafc"/><stop offset="1" stop-color="#a9e0ff"/></linearGradient><path d="m424.47 151c-36.24 0-81.35-2.54-135.6-10.03-167.67-23.16-254.21-1.51-255.06-1.29-.35.09-.7-.12-.79-.47s.12-.7.47-.79c.86-.22 87.65-21.93 255.57 1.26 167.65 23.15 247.72-1 248.51-1.25.35-.11.71.09.82.43s-.08.71-.43.82c-.54.17-37.54 11.33-113.48 11.33z" fill="#ffce00"/><path d="m50.65 104.52c0 2.1-4.64 10.85-8.61 16.32-2.25 3.07-2.85 3.59-4.27 3.59-1.57 0-3.14-1.57-3.14-3.07 0-.97.22-1.35 1.72-3.14 2.47-2.84 6.21-9.21 8.46-14.37.6-1.5 1.5-2.17 2.77-2.17 1.57 0 3.07 1.35 3.07 2.85zm10.71-28.37c0-1.35 1.27-2.4 2.99-2.4s2.92 1.05 2.92 2.4v11.68h22.23c1.35 0 2.32 1.12 2.32 2.7s-.97 2.69-2.32 2.69h-22.23v32.79c0 4.64-2.17 7.04-6.29 7.04-2.47 0-6.21-.75-8.31-1.72-1.57-.75-2.25-1.5-2.25-2.69 0-1.72.97-2.92 2.4-2.92.52 0 .82.07 1.65.37 1.8.6 3.67 1.05 4.87 1.05 1.57 0 2.02-.52 2.02-2.4v-31.52h-22.01c-1.35 0-2.32-1.12-2.32-2.69s.97-2.7 2.32-2.7h22.01zm24.7 31.51c4.19 5.84 6.96 10.78 6.96 12.5s-1.5 3.07-3.22 3.07c-1.42 0-2.1-.6-3.44-3.14-2.99-5.54-6.59-11.23-8.91-14.07-.82-1.12-.97-1.42-.97-2.17 0-1.35 1.5-2.69 2.92-2.69 1.5 0 3.14 1.57 6.66 6.51z" fill="none" stroke="#3a2a0d" stroke-width="2.61"/><path d="m142.94 131.39c0 1.57-1.27 2.62-3.07 2.62s-2.92-1.05-2.92-2.62v-32.34c-6.89 5.24-13.4 9.21-21.11 12.73-1.05.52-1.57.67-2.25.67-1.57 0-2.77-1.35-2.77-3.22 0-.97.45-1.87 1.27-2.47.3-.15.37-.22 2.17-.97 14.07-6.36 26.58-16.1 36.53-28.52.9-1.2 1.65-1.65 2.77-1.65 1.57 0 3.22 1.5 3.22 2.99 0 .9-.22 1.35-1.57 2.92-4.94 5.76-7.71 8.61-12.28 12.43v37.43z" fill="none" stroke="#3a2a0d" stroke-width="2.61"/><path d="m195.19 111.4c0 1.87-4.94 12.43-8.98 19.02-2.99 5.02-3.89 5.99-5.46 5.99-1.72 0-3.22-1.35-3.22-2.99 0-.97 0-1.05 1.57-3.37 3.14-4.79 7.49-12.88 10.41-19.24.67-1.42 1.57-2.17 2.85-2.17 1.65 0 2.84 1.2 2.84 2.77zm20.66-30.61c-9.28 1.42-13.92 2.02-15.5 2.02s-2.62-1.12-2.62-2.77c0-.82.37-1.65 1.05-2.02.45-.3.75-.37 2.1-.52 17.67-2.47 21.41-3.14 32.27-5.84.52-.15.82-.22 1.2-.22 1.5 0 2.55 1.2 2.55 2.92 0 1.27-.67 2.1-2.02 2.47-2.47.67-8.46 2.02-13.48 2.99v12.2h19.31c1.27 0 2.25 1.05 2.25 2.47s-.97 2.47-2.25 2.47h-19.31v11.38h10.03c3.67 0 5.54 1.87 5.54 5.54v16.02c0 3.67-1.87 5.54-5.54 5.54h-25.15c-3.74 0-5.54-1.87-5.54-5.62v-15.95c0-3.74 1.8-5.54 5.54-5.54h9.58v-11.38h-19.16c-1.27 0-2.24-1.05-2.24-2.47s.9-2.47 2.24-2.47h19.16v-11.23zm-9.58 48.21c0 1.05.52 1.65 1.57 1.65h22.01c1.05 0 1.57-.52 1.57-1.57v-14.45c0-.97-.45-1.5-1.5-1.5h-22.16c-1.05 0-1.5.45-1.5 1.5v14.37z" fill="none" stroke="#3a2a0d" stroke-width="2.61"/><path d="m262.38 95.71c1.89 0 2.65 0 5.31-.18.77-2.36 1.65-5.37 2.3-8.2.35-1.47 1-2.12 2.24-2.12s2.36.83 2.36 1.89c0 .71-.59 2.89-2 7.37l-.18.59c1.59-.18 4.01-.59 5.31-.94.41-.12.59-.18.83-.18 1.06 0 1.95.94 1.95 2.18 0 2.01-1.95 2.71-9.55 3.36-1.77 5.19-3.6 9.32-6.61 14.86-3.24 6.07-4.3 7.49-5.66 7.49-1.24 0-2.42-1.12-2.42-2.3 0-.77.06-.88 1.12-2.54 3.89-6.25 6.84-11.97 8.73-17.1-2.18.12-3.19.18-4.78.18-2.65 0-3.54-.59-3.54-2.24 0-1.36.83-2.24 2.06-2.24.12 0 .35 0 .59.06l1.95.06zm20.82 18.46c0-2.06.3-6.31.53-8.14.18-1.18.94-1.95 2.06-1.95 1.3 0 2.3.88 2.3 2q0 .3-.18 1.42c-.23 1.18-.35 3.24-.35 5.19 0 1.83.06 3.3.29 6.96 4.01 1.53 7.55 3.24 10.2 4.95.88.59 1.24 1.18 1.24 2.06 0 1.42-.88 2.48-2.01 2.48-.65 0-1.12-.18-2.24-1-1.95-1.42-4.31-2.77-6.84-3.89 0 5.13-3.89 8.55-9.79 8.55s-10.03-3.13-10.03-7.73c0-4.07 4.6-7.14 10.79-7.14 1.3 0 2.71.18 4.19.47-.12-2.12-.18-3.19-.18-4.25zm.59 8.55c-2.24-.53-3.95-.83-5.31-.83-3.24 0-5.9 1.47-5.9 3.36s2.77 3.66 6.01 3.66 5.19-2 5.19-5.07v-1.12zm10.02-25.95c3.71 3.07 5.25 4.78 5.25 5.96 0 1.24-1.18 2.42-2.42 2.42-.83 0-1.06-.18-2.18-1.47-1.95-2.18-3.83-3.89-7.37-6.55-.71-.53-1.06-1.12-1.06-1.77 0-1.06 1.06-2.06 2.18-2.06 1 0 2.48.88 5.6 3.48z" fill="none" stroke="#3a2a0d" stroke-width="2.61"/><path d="m323.36 113.1c4.36-3.42 9.61-5.19 15.22-5.19 7.67 0 12.33 3.72 12.33 9.73 0 4.66-2.54 8.43-7.43 10.97-1.95 1-4.36 1.89-7.08 2.59-2.71.65-7.61 1.42-9.49 1.42-1.3 0-2.12-.88-2.12-2.3 0-1.65.47-1.95 3.24-2.24 4.72-.47 9.73-1.77 12.74-3.3 3.48-1.77 5.19-4.07 5.19-7.02 0-4.01-2.48-5.96-7.61-5.96-5.48 0-10.32 2-14.68 6.13-1.24 1.18-1.95 1.59-2.71 1.59-.71 0-1.42-.35-1.83-1-.41-.59-.47-1.12-.47-3.18 0-4.07.77-9.91 2.42-18.4.29-1.47 1.06-2.24 2.3-2.24s2.36 1 2.36 2.18c0 .29 0 .41-.35 1.71-.94 3.83-1.83 9.97-2 13.98v.53zm10.97-19.75c.24-.18.41-.35.41-.53 0-.77-3.01-2.3-7.25-3.66-1.06-.35-1.65-1.06-1.65-1.95 0-1.24.83-2.06 2.06-2.06s5.37 1.59 8.55 3.3c3.01 1.59 3.77 2.42 3.77 4.07 0 1.3-.83 2.42-2.36 3.13-2.54 1.12-2.95 1.3-3.66 1.3-.88 0-1.65-.77-1.65-1.65 0-.53.35-1.06 1.12-1.53l.65-.41z" fill="none" stroke="#3a2a0d" stroke-width="2.61"/><path d="m368.91 87.45v-.6c0-3.74 2.25-5.76 6.36-5.76h35.86c3.74 0 5.99 2.17 5.99 5.69 0 5.24-1.8 14.15-4.04 19.84-3.29 8.53-8.98 15.27-17.22 20.36-4.27 2.62-9.73 5.17-11.08 5.17-1.57 0-2.99-1.65-2.99-3.44 0-.9.52-1.8 1.35-2.32q.3-.22 2.4-1.12c9.06-3.89 15.42-9.06 19.46-15.8 2.17-3.59 3.82-8.01 4.79-13.18.45-2.24.97-6.81.97-8.23 0-1.05-.45-1.42-1.57-1.42h-32.56c-1.05 0-1.8.67-1.72 1.57v.15l.75 14.07c.08 1.27-1.27 2.32-2.99 2.32s-2.92-.97-2.99-2.32l-.75-14.97z" fill="none" stroke="#3a2a0d" stroke-width="2.61"/><path d="m482.09 94.71c3.29 0 5.09 1.57 5.09 4.34 0 3.29-2.47 9.96-5.47 14.9-4.04 6.66-8.98 11.15-16.77 15.2-4.34 2.25-9.96 4.34-11.75 4.34-1.57 0-2.85-1.35-2.85-3.07 0-.9.45-1.8 1.2-2.32.45-.3.52-.3 2.25-.9 6.51-2.1 12.2-4.94 16.02-8.24 4.27-3.52 7.79-8.83 9.73-14.75.45-1.5.75-2.62.75-2.92 0-.75-.6-1.12-1.65-1.12h-39.23c-1.35 0-2.25-1.12-2.25-2.77s.97-2.69 2.25-2.69h42.67zm-5.46-15.95c1.27 0 2.25 1.12 2.25 2.62 0 1.57-.97 2.7-2.25 2.7h-29.12c-1.27 0-2.17-1.12-2.17-2.7s.9-2.62 2.17-2.62z" fill="none" stroke="#3a2a0d" stroke-width="2.61"/><path d="m525.73 75.47c0-1.35 1.2-2.32 2.99-2.32s2.92.97 2.92 2.32v9.88h16.47c3.67 0 5.76 1.87 5.76 5.09 0 3.97-1.72 12.95-3.44 17.82-2.99 8.31-7.49 14.22-14.3 18.79-4.42 3.07-12.88 6.81-15.2 6.81-1.42 0-2.7-1.5-2.7-3.14 0-.97.52-1.87 1.35-2.39.3-.15.45-.22 2.02-.75 8.53-2.7 15.5-7.56 19.46-13.62 2.4-3.67 4.19-8.09 5.39-13.55.37-1.8 1.05-6.96 1.05-8.16 0-.9-.67-1.5-1.72-1.5h-33.39c-1.12 0-1.65.52-1.57 1.65l.75 12.35c.07 1.35-1.27 2.4-2.99 2.4s-2.85-.97-2.92-2.4l-.75-13.25c-.15-4.04 1.95-6.14 6.06-6.14h14.75v-9.88z" fill="none" stroke="#3a2a0d" stroke-width="2.61"/><path d="m50.65 104.52c0 2.1-4.64 10.85-8.61 16.32-2.25 3.07-2.85 3.59-4.27 3.59-1.57 0-3.14-1.57-3.14-3.07 0-.97.22-1.35 1.72-3.14 2.47-2.84 6.21-9.21 8.46-14.37.6-1.5 1.5-2.17 2.77-2.17 1.57 0 3.07 1.35 3.07 2.85zm10.71-28.37c0-1.35 1.27-2.4 2.99-2.4s2.92 1.05 2.92 2.4v11.68h22.23c1.35 0 2.32 1.12 2.32 2.7s-.97 2.69-2.32 2.69h-22.23v32.79c0 4.64-2.17 7.04-6.29 7.04-2.47 0-6.21-.75-8.31-1.72-1.57-.75-2.25-1.5-2.25-2.69 0-1.72.97-2.92 2.4-2.92.52 0 .82.07 1.65.37 1.8.6 3.67 1.05 4.87 1.05 1.57 0 2.02-.52 2.02-2.4v-31.52h-22.01c-1.35 0-2.32-1.12-2.32-2.69s.97-2.7 2.32-2.7h22.01zm24.7 31.51c4.19 5.84 6.96 10.78 6.96 12.5s-1.5 3.07-3.22 3.07c-1.42 0-2.1-.6-3.44-3.14-2.99-5.54-6.59-11.23-8.91-14.07-.82-1.12-.97-1.42-.97-2.17 0-1.35 1.5-2.69 2.92-2.69 1.5 0 3.14 1.57 6.66 6.51z" fill="#3a2a0d"/><path d="m142.94 131.39c0 1.57-1.27 2.62-3.07 2.62s-2.92-1.05-2.92-2.62v-32.34c-6.89 5.24-13.4 9.21-21.11 12.73-1.05.52-1.57.67-2.25.67-1.57 0-2.77-1.35-2.77-3.22 0-.97.45-1.87 1.27-2.47.3-.15.37-.22 2.17-.97 14.07-6.36 26.58-16.1 36.53-28.52.9-1.2 1.65-1.65 2.77-1.65 1.57 0 3.22 1.5 3.22 2.99 0 .9-.22 1.35-1.57 2.92-4.94 5.76-7.71 8.61-12.28 12.43v37.43z" fill="#3a2a0d"/><path d="m195.19 111.4c0 1.87-4.94 12.43-8.98 19.02-2.99 5.02-3.89 5.99-5.46 5.99-1.72 0-3.22-1.35-3.22-2.99 0-.97 0-1.05 1.57-3.37 3.14-4.79 7.49-12.88 10.41-19.24.67-1.42 1.57-2.17 2.85-2.17 1.65 0 2.84 1.2 2.84 2.77zm20.66-30.61c-9.28 1.42-13.92 2.02-15.5 2.02s-2.62-1.12-2.62-2.77c0-.82.37-1.65 1.05-2.02.45-.3.75-.37 2.1-.52 17.67-2.47 21.41-3.14 32.27-5.84.52-.15.82-.22 1.2-.22 1.5 0 2.55 1.2 2.55 2.92 0 1.27-.67 2.1-2.02 2.47-2.47.67-8.46 2.02-13.48 2.99v12.2h19.31c1.27 0 2.25 1.05 2.25 2.47s-.97 2.47-2.25 2.47h-19.31v11.38h10.03c3.67 0 5.54 1.87 5.54 5.54v16.02c0 3.67-1.87 5.54-5.54 5.54h-25.15c-3.74 0-5.54-1.87-5.54-5.62v-15.95c0-3.74 1.8-5.54 5.54-5.54h9.58v-11.38h-19.16c-1.27 0-2.24-1.05-2.24-2.47s.9-2.47 2.24-2.47h19.16v-11.23zm-9.58 48.21c0 1.05.52 1.65 1.57 1.65h22.01c1.05 0 1.57-.52 1.57-1.57v-14.45c0-.97-.45-1.5-1.5-1.5h-22.16c-1.05 0-1.5.45-1.5 1.5v14.37z" fill="#3a2a0d"/><path d="m262.38 95.71c1.89 0 2.65 0 5.31-.18.77-2.36 1.65-5.37 2.3-8.2.35-1.47 1-2.12 2.24-2.12s2.36.83 2.36 1.89c0 .71-.59 2.89-2 7.37l-.18.59c1.59-.18 4.01-.59 5.31-.94.41-.12.59-.18.83-.18 1.06 0 1.95.94 1.95 2.18 0 2.01-1.95 2.71-9.55 3.36-1.77 5.19-3.6 9.32-6.61 14.86-3.24 6.07-4.3 7.49-5.66 7.49-1.24 0-2.42-1.12-2.42-2.3 0-.77.06-.88 1.12-2.54 3.89-6.25 6.84-11.97 8.73-17.1-2.18.12-3.19.18-4.78.18-2.65 0-3.54-.59-3.54-2.24 0-1.36.83-2.24 2.06-2.24.12 0 .35 0 .59.06l1.95.06zm20.82 18.46c0-2.06.3-6.31.53-8.14.18-1.18.94-1.95 2.06-1.95 1.3 0 2.3.88 2.3 2q0 .3-.18 1.42c-.23 1.18-.35 3.24-.35 5.19 0 1.83.06 3.3.29 6.96 4.01 1.53 7.55 3.24 10.2 4.95.88.59 1.24 1.18 1.24 2.06 0 1.42-.88 2.48-2.01 2.48-.65 0-1.12-.18-2.24-1-1.95-1.42-4.31-2.77-6.84-3.89 0 5.13-3.89 8.55-9.79 8.55s-10.03-3.13-10.03-7.73c0-4.07 4.6-7.14 10.79-7.14 1.3 0 2.71.18 4.19.47-.12-2.12-.18-3.19-.18-4.25zm.59 8.55c-2.24-.53-3.95-.83-5.31-.83-3.24 0-5.9 1.47-5.9 3.36s2.77 3.66 6.01 3.66 5.19-2 5.19-5.07v-1.12zm10.02-25.95c3.71 3.07 5.25 4.78 5.25 5.96 0 1.24-1.18 2.42-2.42 2.42-.83 0-1.06-.18-2.18-1.47-1.95-2.18-3.83-3.89-7.37-6.55-.71-.53-1.06-1.12-1.06-1.77 0-1.06 1.06-2.06 2.18-2.06 1 0 2.48.88 5.6 3.48z" fill="#3a2a0d"/><path d="m323.36 113.1c4.36-3.42 9.61-5.19 15.22-5.19 7.67 0 12.33 3.72 12.33 9.73 0 4.66-2.54 8.43-7.43 10.97-1.95 1-4.36 1.89-7.08 2.59-2.71.65-7.61 1.42-9.49 1.42-1.3 0-2.12-.88-2.12-2.3 0-1.65.47-1.95 3.24-2.24 4.72-.47 9.73-1.77 12.74-3.3 3.48-1.77 5.19-4.07 5.19-7.02 0-4.01-2.48-5.96-7.61-5.96-5.48 0-10.32 2-14.68 6.13-1.24 1.18-1.95 1.59-2.71 1.59-.71 0-1.42-.35-1.83-1-.41-.59-.47-1.12-.47-3.18 0-4.07.77-9.91 2.42-18.4.29-1.47 1.06-2.24 2.3-2.24s2.36 1 2.36 2.18c0 .29 0 .41-.35 1.71-.94 3.83-1.83 9.97-2 13.98v.53zm10.97-19.75c.24-.18.41-.35.41-.53 0-.77-3.01-2.3-7.25-3.66-1.06-.35-1.65-1.06-1.65-1.95 0-1.24.83-2.06 2.06-2.06s5.37 1.59 8.55 3.3c3.01 1.59 3.77 2.42 3.77 4.07 0 1.3-.83 2.42-2.36 3.13-2.54 1.12-2.95 1.3-3.66 1.3-.88 0-1.65-.77-1.65-1.65 0-.53.35-1.06 1.12-1.53l.65-.41z" fill="#3a2a0d"/><path d="m368.91 87.45v-.6c0-3.74 2.25-5.76 6.36-5.76h35.86c3.74 0 5.99 2.17 5.99 5.69 0 5.24-1.8 14.15-4.04 19.84-3.29 8.53-8.98 15.27-17.22 20.36-4.27 2.62-9.73 5.17-11.08 5.17-1.57 0-2.99-1.65-2.99-3.44 0-.9.52-1.8 1.35-2.32q.3-.22 2.4-1.12c9.06-3.89 15.42-9.06 19.46-15.8 2.17-3.59 3.82-8.01 4.79-13.18.45-2.24.97-6.81.97-8.23 0-1.05-.45-1.42-1.57-1.42h-32.56c-1.05 0-1.8.67-1.72 1.57v.15l.75 14.07c.08 1.27-1.27 2.32-2.99 2.32s-2.92-.97-2.99-2.32l-.75-14.97z" fill="#3a2a0d"/><path d="m482.09 94.71c3.29 0 5.09 1.57 5.09 4.34 0 3.29-2.47 9.96-5.47 14.9-4.04 6.66-8.98 11.15-16.77 15.2-4.34 2.25-9.96 4.34-11.75 4.34-1.57 0-2.85-1.35-2.85-3.07 0-.9.45-1.8 1.2-2.32.45-.3.52-.3 2.25-.9 6.51-2.1 12.2-4.94 16.02-8.24 4.27-3.52 7.79-8.83 9.73-14.75.45-1.5.75-2.62.75-2.92 0-.75-.6-1.12-1.65-1.12h-39.23c-1.35 0-2.25-1.12-2.25-2.77s.97-2.69 2.25-2.69h42.67zm-5.46-15.95c1.27 0 2.25 1.12 2.25 2.62 0 1.57-.97 2.7-2.25 2.7h-29.12c-1.27 0-2.17-1.12-2.17-2.7s.9-2.62 2.17-2.62z" fill="#3a2a0d"/><path d="m525.73 75.47c0-1.35 1.2-2.32 2.99-2.32s2.92.97 2.92 2.32v9.88h16.47c3.67 0 5.76 1.87 5.76 5.09 0 3.97-1.72 12.95-3.44 17.82-2.99 8.31-7.49 14.22-14.3 18.79-4.42 3.07-12.88 6.81-15.2 6.81-1.42 0-2.7-1.5-2.7-3.14 0-.97.52-1.87 1.35-2.39.3-.15.45-.22 2.02-.75 8.53-2.7 15.5-7.56 19.46-13.62 2.4-3.67 4.19-8.09 5.39-13.55.37-1.8 1.05-6.96 1.05-8.16 0-.9-.67-1.5-1.72-1.5h-33.39c-1.12 0-1.65.52-1.57 1.65l.75 12.35c.07 1.35-1.27 2.4-2.99 2.4s-2.85-.97-2.92-2.4l-.75-13.25c-.15-4.04 1.95-6.14 6.06-6.14h14.75v-9.88z" fill="#3a2a0d"/><path d="m28.4 76.47c-.68 0-1.37-.27-1.88-.8l-14.07-14.63c-1-1.04-.97-2.69.07-3.69s2.69-.96 3.69.07l14.07 14.63c1 1.04.97 2.69-.07 3.69-.51.49-1.16.73-1.81.73z" fill="#ffbf37"/><path d="m22.59 85.62c-.39 0-.79-.09-1.17-.28l-15.55-7.79c-1.29-.65-1.81-2.21-1.16-3.5s2.21-1.81 3.5-1.16l15.55 7.79c1.29.65 1.81 2.21 1.16 3.5-.46.91-1.38 1.44-2.33 1.44z" fill="#ffbf37"/><path d="m37.66 69.38c-1 0-1.96-.58-2.39-1.56l-6.77-15.36c-.58-1.32.02-2.86 1.33-3.44 1.32-.58 2.86.02 3.44 1.33l6.77 15.36c.58 1.32-.02 2.86-1.33 3.44-.34.15-.7.22-1.05.22z" fill="#ffbf37"/><path d="m100.43 74.1c0 6.9-5.59 12.49-12.49 12.49s-12.49-5.59-12.49-12.49 5.59-12.49 12.49-12.49 12.49 5.59 12.49 12.49z" fill="none" stroke="#ffa300" stroke-width="1.3"/><path d="m87.93 60.22c-7.67 0-13.87 6.22-13.87 13.89s6.21 13.87 13.87 13.87 13.88-6.21 13.88-13.87-6.21-13.89-13.88-13.89zm0 2.31c6.38 0 11.56 5.2 11.56 11.57s-5.19 11.56-11.56 11.56-11.56-5.19-11.56-11.56 5.19-11.57 11.56-11.57z" fill="none" stroke="#ffa300" stroke-width="1.3"/><path d="m86.15 70.1v3.76h1.47c1.06 0 1.75-.07 2.11-.21.36-.13.64-.35.83-.65.2-.29.3-.63.3-1.02 0-.48-.13-.89-.42-1.2-.29-.3-.65-.51-1.08-.58-.32-.06-.97-.09-1.93-.09h-1.29zm-2.67 11.02v-13.26h4.29c1.63 0 2.69.07 3.19.2.75.2 1.39.63 1.9 1.3.52.66.78 1.53.78 2.57 0 .82-.15 1.5-.45 2.05-.29.56-.66.99-1.12 1.31-.45.31-.91.52-1.38.62-.64.13-1.57.19-2.77.19h-1.75v5.01h-2.67z" fill="none" stroke="#ffa300" stroke-width="1.3"/><path d="m100.43 74.1c0 6.9-5.59 12.49-12.49 12.49s-12.49-5.59-12.49-12.49 5.59-12.49 12.49-12.49 12.49 5.59 12.49 12.49z" fill="#fff"/><path d="m87.93 60.22c-7.67 0-13.87 6.22-13.87 13.89s6.21 13.87 13.87 13.87 13.88-6.21 13.88-13.87-6.21-13.89-13.88-13.89zm0 2.31c6.38 0 11.56 5.2 11.56 11.57s-5.19 11.56-11.56 11.56-11.56-5.19-11.56-11.56 5.19-11.57 11.56-11.57z" fill="#ffa300" fill-rule="evenodd"/><path d="m86.15 70.1v3.76h1.47c1.06 0 1.75-.07 2.11-.21.36-.13.64-.35.83-.65.2-.29.3-.63.3-1.02 0-.48-.13-.89-.42-1.2-.29-.3-.65-.51-1.08-.58-.32-.06-.97-.09-1.93-.09h-1.29zm-2.67 11.02v-13.26h4.29c1.63 0 2.69.07 3.19.2.75.2 1.39.63 1.9 1.3.52.66.78 1.53.78 2.57 0 .82-.15 1.5-.45 2.05-.29.56-.66.99-1.12 1.31-.45.31-.91.52-1.38.62-.64.13-1.57.19-2.77.19h-1.75v5.01h-2.67z" fill="#ffa300" fill-rule="evenodd"/><path d="m571.66 144.56c-.71 0-1.29-.57-1.3-1.28 0-.03 0-.06 0-.1-.06-2.71-2.47-6.57-6.73-6.57-.72 0-1.3-.58-1.3-1.3s.58-1.3 1.3-1.3c4.22 0 6.35-4.08 6.75-6.82.09-.64.64-1.12 1.29-1.12h.01c.65 0 1.2.5 1.28 1.14.32 2.63 2.44 6.79 6.74 6.79.72 0 1.3.58 1.3 1.3s-.58 1.3-1.3 1.3c-2.27 0-3.82 1.1-4.73 2.03-1.25 1.28-2.01 2.99-2.01 4.5v.1c0 .72-.57 1.3-1.29 1.31h-.02zm-3.4-9.29c1.43.85 2.59 2.05 3.4 3.43.4-.67.88-1.3 1.44-1.87.6-.61 1.26-1.13 1.97-1.55-1.47-.94-2.63-2.28-3.45-3.8-.78 1.45-1.89 2.83-3.37 3.79z" fill="#ffce00"/><path d="m9.34 149.1c-.71 0-1.29-.57-1.3-1.28 0-.03 0-.06 0-.1-.06-2.71-2.47-6.57-6.73-6.57-.72 0-1.3-.58-1.3-1.3s.58-1.3 1.3-1.3c4.22 0 6.35-4.08 6.75-6.82.09-.65.67-1.12 1.3-1.12.65 0 1.2.5 1.28 1.14.32 2.63 2.44 6.79 6.74 6.79.72 0 1.3.58 1.3 1.3s-.58 1.3-1.3 1.3c-2.27 0-3.82 1.1-4.73 2.03-1.25 1.27-2.01 2.99-2 4.49v.1c0 .72-.57 1.3-1.29 1.31h-.02zm-3.4-9.29c1.43.85 2.59 2.05 3.4 3.43.4-.67.88-1.3 1.44-1.87.6-.61 1.26-1.13 1.97-1.55-1.47-.94-2.63-2.28-3.45-3.8-.78 1.45-1.89 2.83-3.37 3.79z" fill="#ffce00"/><circle cx="179.49" cy="82.02" fill="#ffa300" r="6.8"/><circle cx="178.81" cy="100.16" fill="#ffa300" r="6.8"/><g clip-path="url(#a)"><g mask="url(#b)"><path d="m221.78 125.16h-514.04v289.92h514.04z" fill="url(#c)"/></g></g><g fill="#3a2a0d"><path d="m77.19 27.65c-.45.17-.9.17-1.36-.02-.46-.18-.78-.5-.98-.94-.19-.43-.19-.85 0-1.26.19-.42.5-.71.93-.88 1.6-.58 3.01-1.22 4.22-1.92.04-.02.06-.05.06-.08s-.02-.05-.06-.05h-3.55c-.38 0-.71-.14-.99-.42s-.42-.61-.42-.99.14-.71.42-.99.61-.42.99-.42h7.14c.17 0 .32-.06.45-.19.04-.04.1-.11.18-.21s.13-.17.18-.21c.04-.04.05-.08.03-.13s-.05-.06-.1-.06h-4.9c-.49 0-.91-.18-1.25-.53s-.51-.77-.51-1.26v-5.15c0-.49.17-.91.51-1.25s.76-.51 1.25-.51h1.89c.17 0 .26-.08.26-.26v-.38c0-.17-.09-.26-.26-.26h-4.74c-.41 0-.76-.15-1.07-.45s-.46-.66-.46-1.09.15-.76.45-1.06.66-.45 1.09-.45h4.77c.15 0 .22-.08.22-.26 0-.45.16-.83.48-1.15s.7-.48 1.15-.48h.8c.45 0 .84.16 1.17.48s.5.7.5 1.15c0 .17.08.26.22.26h6.53c.15 0 .22-.08.22-.26 0-.45.17-.83.5-1.15s.72-.48 1.17-.48h.8c.45 0 .83.16 1.15.48s.48.7.48 1.15c0 .17.08.26.26.26h4.74c.43 0 .79.15 1.09.45s.45.65.45 1.06c0 .43-.16.79-.46 1.09-.31.3-.67.45-1.07.45h-4.74c-.17 0-.26.09-.26.26v.38c0 .17.08.26.26.26h1.89c.49 0 .91.17 1.25.51s.51.76.51 1.25v5.15c0 .49-.17.91-.51 1.26s-.76.53-1.25.53h-9.57c-.19 0-.34.08-.45.22l-.29.38c-.08.13-.04.19.13.19h13.15c.38 0 .71.14.99.42s.42.61.42.99-.14.72-.42.99-.61.42-.99.42h-3.52s-.06.02-.06.05.01.06.03.08c1.28.73 2.68 1.37 4.19 1.92.43.17.74.47.94.9s.21.84.02 1.25c-.19.43-.51.74-.96.93s-.9.2-1.34.03c-.21-.08-.51-.21-.9-.38-.15-.08-.22-.03-.22.16v4.35c0 .49-.18.91-.53 1.26s-.77.53-1.26.53h-1.57c-.23 0-.43-.08-.59-.24s-.24-.36-.24-.59c0-.09-.04-.13-.13-.13h-13.12c-.09 0-.13.04-.13.13 0 .23-.08.43-.24.59s-.36.24-.59.24h-1.57c-.49 0-.91-.18-1.26-.53s-.53-.77-.53-1.26v-4.35c0-.17-.09-.21-.26-.13-.09.04-.22.1-.42.18-.19.07-.33.13-.42.18zm4.64-14.97v.58c0 .17.1.26.29.26h14.08c.19 0 .29-.08.29-.26v-.58c0-.17-.1-.26-.29-.26h-14.08c-.19 0-.29.09-.29.26zm.29 3.9h14.08c.19 0 .29-.08.29-.26v-.58c0-.17-.1-.26-.29-.26h-14.08c-.19 0-.29.09-.29.26v.58c0 .17.1.26.29.26zm.35 9.41v.64c0 .17.09.26.26.26h12.86c.17 0 .26-.08.26-.26v-.64c0-.17-.09-.26-.26-.26h-12.86c-.17 0-.26.08-.26.26zm0 3.2v.61c0 .19.09.29.26.29h12.86c.17 0 .26-.1.26-.29v-.61c0-.19-.09-.29-.26-.29h-12.86c-.17 0-.26.1-.26.29zm9.83-6.69h-6.21c-.21 0-.37.05-.48.16-.02.02-.12.11-.29.26s-.31.27-.42.35c-.04.02-.06.05-.05.1 0 .04.04.06.08.06h8.48s.07-.02.1-.06.01-.07-.03-.1c-.15-.11-.4-.31-.74-.61-.11-.11-.26-.16-.45-.16zm-6.63-12.96v.38c0 .17.08.26.26.26h6.46c.17 0 .26-.08.26-.26v-.38c0-.17-.09-.26-.26-.26h-6.46c-.17 0-.26.09-.26.26z"/><path d="m113.67 22.88c-.49-.08-.88-.34-1.17-.77s-.38-.88-.27-1.38c.49-2.52.88-4.74 1.18-6.66.08-.49.33-.9.72-1.22s.85-.46 1.36-.42l.45.03c.49.04.88.26 1.18.64s.41.82.32 1.31c-.34 1.88-.65 3.47-.93 4.77 0 .04 0 .06.03.06h.06c2.96-2.07 6.11-3.1 9.44-3.1 2.58 0 4.61.65 6.1 1.94 1.48 1.29 2.22 3.06 2.22 5.3 0 2.58-1.08 4.65-3.23 6.21-2.16 1.56-5.16 2.34-9.02 2.34-1.94 0-3.73-.12-5.38-.35-.51-.06-.92-.3-1.22-.7s-.42-.86-.35-1.38l.03-.26c.06-.49.29-.88.69-1.17.39-.29.84-.4 1.33-.34 1.56.24 3.22.35 4.99.35 2.54 0 4.47-.42 5.81-1.26 1.33-.84 2-1.99 2-3.44 0-2.26-1.46-3.39-4.38-3.39-2.41 0-5.1.82-8.06 2.46-1.11.6-2.23.78-3.36.54l-.54-.13zm4.71-16.25c3.63.98 7.3 1.57 11.01 1.76.49.04.91.25 1.26.61s.53.79.53 1.28-.18.91-.53 1.26-.77.52-1.26.5c-4.22-.23-8.22-.87-12-1.92-.47-.13-.83-.41-1.07-.85-.25-.44-.3-.9-.18-1.39.13-.47.41-.83.85-1.07s.9-.3 1.39-.18z"/><path d="m154.35 32.36c-2.99 0-5.23-.78-6.72-2.35s-2.24-4.23-2.24-7.98c0-1.58.06-4.16.19-7.74.13-2.79.2-4.94.22-6.43 0-.49.18-.92.54-1.28s.79-.54 1.28-.54h.74c.49 0 .92.18 1.28.53s.53.77.51 1.26c-.04 2.13-.11 4.23-.19 6.3-.15 4.18-.22 6.82-.22 7.9 0 2.24.38 3.87 1.14 4.88s1.91 1.52 3.47 1.52c3.46 0 6.45-2.56 8.99-7.68.23-.45.58-.76 1.04-.94s.92-.17 1.39.05l.45.19c.47.21.79.55.98 1.02.18.47.17.94-.05 1.41-3.07 6.59-7.34 9.89-12.8 9.89z"/><path d="m181.16 29.7c-1.62 0-3.09-.86-4.42-2.58-1.32-1.72-1.98-3.81-1.98-6.29 0-3.86 1.33-6.99 4-9.39s6.22-3.6 10.66-3.6c3.69 0 6.7 1.05 9.04 3.15s3.5 4.82 3.5 8.14c0 2.92-.75 5.41-2.24 7.46s-3.6 3.5-6.3 4.35c-.49.15-.96.1-1.39-.16-.44-.26-.74-.63-.91-1.12l-.06-.16c-.15-.45-.11-.89.11-1.33s.57-.74 1.04-.91c1.77-.68 3.13-1.72 4.08-3.12s1.42-3.07 1.42-5.01-.58-3.58-1.74-4.91-2.71-2.17-4.66-2.51c-.17-.04-.28.04-.32.26-.85 6.1-2.13 10.58-3.82 13.44-1.7 2.86-3.7 4.29-6 4.29zm5.31-17.86c-2.37.47-4.23 1.49-5.58 3.06-1.36 1.57-2.03 3.48-2.03 5.74 0 1.41.26 2.58.78 3.5.52.93 1.06 1.39 1.62 1.39.4 0 .83-.24 1.28-.72s.92-1.23 1.41-2.24.98-2.42 1.46-4.22.92-3.91 1.33-6.32c.02-.06 0-.12-.06-.16s-.13-.05-.19-.03z"/><path d="m212.01 25.92c-.49 0-.91-.17-1.25-.51s-.51-.76-.51-1.25v-12.7c0-.49.17-.91.51-1.26s.76-.53 1.25-.53h9.15c.17 0 .26-.08.26-.26v-3.04c0-.49.18-.91.53-1.25s.77-.51 1.26-.51h.7c.49 0 .91.17 1.26.51s.53.76.53 1.25v3.04c0 .17.08.26.26.26h9.15c.49 0 .91.18 1.25.53s.51.77.51 1.26v12.7c0 .49-.17.91-.51 1.25s-.76.51-1.25.51h-.64c-.43 0-.79-.15-1.1-.45s-.46-.66-.46-1.09c0-.15-.08-.22-.22-.22h-6.72c-.17 0-.26.09-.26.26v7.49c0 .49-.18.91-.53 1.25s-.77.51-1.26.51h-.7c-.49 0-.91-.17-1.26-.51s-.53-.76-.53-1.25v-7.49c0-.17-.09-.26-.26-.26h-6.72c-.15 0-.22.08-.22.22 0 .43-.16.79-.46 1.09-.31.3-.68.45-1.1.45h-.64zm2.21-12.41v6.94c0 .17.08.26.26.26h6.69c.17 0 .26-.08.26-.26v-6.94c0-.19-.09-.29-.26-.29h-6.69c-.17 0-.26.1-.26.29zm18.43-.29h-6.69c-.17 0-.26.1-.26.29v6.94c0 .17.08.26.26.26h6.69c.17 0 .26-.08.26-.26v-6.94c0-.19-.08-.29-.26-.29z"/><path d="m245.55 13.09c-.49.02-.92-.15-1.28-.51s-.54-.79-.54-1.28v-.38c0-.49.18-.92.53-1.28s.77-.54 1.26-.54c7.3-.11 14.6-.6 21.92-1.47.49-.06.92.06 1.3.37.37.31.58.72.62 1.23l.03.22c.04.49-.09.94-.4 1.34s-.71.65-1.2.74c-3.88.68-6.84 1.84-8.86 3.47-2.03 1.63-3.04 3.51-3.04 5.65 0 1.9.69 3.47 2.08 4.7 1.39 1.24 3.4 2.06 6.05 2.46.49.08.89.31 1.2.69.31.37.44.81.4 1.3l-.03.35c-.06.51-.29.93-.69 1.25s-.84.45-1.33.38c-3.82-.45-6.79-1.6-8.91-3.46s-3.18-4.2-3.18-7.04c0-1.79.49-3.47 1.47-5.04s2.39-2.88 4.22-3.95c.02 0 .03-.02.03-.06 0-.02-.02-.03-.06-.03-4.08.49-7.94.79-11.58.9zm17.76 3.2c.45-.23.92-.28 1.41-.13s.85.45 1.09.9c.23.43.59 1.09 1.06 1.98.21.45.23.91.06 1.38s-.48.81-.93 1.02c-.47.21-.94.23-1.41.06s-.82-.48-1.06-.93c-.11-.19-.45-.82-1.02-1.89-.24-.43-.28-.88-.13-1.34.15-.47.45-.82.9-1.06h.03zm7.61-.38c.7 1.34 1.07 2.04 1.09 2.08.23.45.27.91.11 1.38s-.46.81-.91 1.02l-.1.06c-.45.21-.91.24-1.39.08s-.84-.46-1.07-.91c-.11-.21-.28-.54-.51-.99-.24-.45-.42-.78-.54-.99-.24-.43-.28-.88-.14-1.38.14-.49.43-.84.88-1.06l.1-.03c.45-.23.92-.28 1.41-.14s.85.43 1.09.88z"/><path d="m281.39 31.65c-1.05-1.28-2.24-2.67-3.58-4.16-.34-.36-.5-.79-.46-1.3s.24-.91.62-1.23l.38-.32c.38-.32.82-.47 1.31-.45s.91.22 1.25.61c1.11 1.26 2.38 2.73 3.81 4.42.32.38.45.82.38 1.3-.06.48-.3.87-.7 1.17l-.38.32c-.41.3-.86.41-1.38.34-.51-.07-.93-.3-1.25-.69z"/><path d="m310.19 19.75c-.45.19-.9.18-1.36-.03s-.78-.55-.98-1.02c-.17-.45-.17-.9.02-1.34.18-.45.5-.76.94-.93 1.47-.6 2.59-1.09 3.36-1.47.43-.21.86-.24 1.31-.08s.77.45.96.88c.19.45.21.91.05 1.38s-.45.81-.88 1.02c-1.13.58-2.27 1.11-3.42 1.6zm9.79 7.9c0-.17-.08-.2-.22-.1-2.45 1.75-5.55 3.35-9.28 4.8-.47.17-.94.17-1.41-.02-.47-.18-.81-.51-1.02-.98l-.06-.16c-.19-.43-.2-.85-.02-1.26s.5-.7.94-.85c3.71-1.22 6.75-2.57 9.12-4.06.02-.02.03-.05.03-.08s-.02-.05-.06-.05h-7.94c-.49 0-.9-.17-1.23-.51s-.5-.75-.5-1.22.17-.87.5-1.22c.33-.34.74-.51 1.23-.51h9.66c.17 0 .26-.08.26-.26v-.99c0-.19-.09-.29-.26-.29h-3.14c-.49 0-.91-.17-1.26-.51s-.53-.76-.53-1.25v-9.63c0-.49.18-.91.53-1.25s.77-.51 1.26-.51h2.43c.19 0 .31-.1.35-.29 0-.04.01-.12.03-.22.02-.11.04-.18.06-.22.13-.49.39-.89.8-1.2s.86-.45 1.38-.43l.74.03c.47.04.84.25 1.12.61s.36.77.26 1.22c-.02.02-.03.06-.03.13s-.01.11-.03.13c-.04.17.03.26.22.26h3.74c.49 0 .91.17 1.26.51s.53.76.53 1.25v9.63c0 .49-.18.91-.53 1.25s-.77.51-1.26.51h-3.14c-.17 0-.26.1-.26.29v.99c0 .17.08.26.26.26h9.66c.49 0 .9.17 1.23.51s.5.75.5 1.22-.17.88-.5 1.22-.74.51-1.23.51h-7.94s-.06.02-.06.05 0 .06.03.08c2.35 1.47 5.37 2.82 9.06 4.03.45.15.77.44.98.86.2.43.21.85.02 1.28l-.06.16c-.21.45-.55.77-1.01.98-.46.2-.92.22-1.39.05-3.67-1.41-6.78-3.03-9.34-4.86-.13-.08-.19-.04-.19.13v3.94c0 .49-.18.91-.53 1.25s-.77.51-1.26.51h-.7c-.49 0-.91-.17-1.26-.51s-.53-.76-.53-1.25v-3.94zm-11.43-20.29c.32-.38.73-.6 1.22-.66.49-.05.94.07 1.34.37.9.7 1.73 1.38 2.5 2.02.38.32.59.73.61 1.23s-.13.94-.45 1.33l-.03.03c-.32.36-.73.56-1.22.59s-.92-.11-1.28-.43c-1.11-.94-1.93-1.61-2.46-2.02-.38-.28-.6-.66-.64-1.15s.08-.92.38-1.28zm10.28 2.79v1.57c0 .17.08.26.26.26h6.08c.17 0 .26-.08.26-.26v-1.57c0-.17-.08-.26-.26-.26h-6.08c-.17 0-.26.08-.26.26zm.25 6.85h6.08c.17 0 .26-.08.26-.26v-1.66c0-.19-.08-.29-.26-.29h-6.08c-.17 0-.26.1-.26.29v1.66c0 .17.08.26.26.26zm16.42-.74c.45.21.75.56.91 1.02.16.47.12.93-.11 1.38l-.03.1c-.21.43-.55.72-1.01.88s-.9.13-1.33-.08c-1.45-.73-2.57-1.25-3.36-1.57-.45-.17-.76-.48-.93-.93s-.15-.89.06-1.31c.23-.45.59-.77 1.06-.98.47-.2.93-.21 1.38-.02.92.36 2.04.86 3.36 1.5zm.13-8.96.06.06c.34.36.5.79.46 1.28-.03.49-.23.9-.59 1.22-.9.79-1.72 1.46-2.46 2.02-.41.3-.86.43-1.38.38-.51-.04-.94-.26-1.28-.64l-.03-.03c-.32-.36-.45-.78-.4-1.25s.26-.85.62-1.15c1.11-.9 1.93-1.57 2.46-2.02.36-.32.79-.47 1.28-.45s.91.21 1.25.58z"/><path d="m355.95 32.36c-2.99 0-5.23-.78-6.72-2.35s-2.24-4.23-2.24-7.98c0-1.58.06-4.16.19-7.74.13-2.79.2-4.94.22-6.43 0-.49.18-.92.54-1.28s.79-.54 1.28-.54h.74c.49 0 .92.18 1.28.53s.53.77.51 1.26c-.04 2.13-.11 4.23-.19 6.3-.15 4.18-.22 6.82-.22 7.9 0 2.24.38 3.87 1.14 4.88s1.91 1.52 3.47 1.52c3.46 0 6.45-2.56 8.99-7.68.23-.45.58-.76 1.04-.94s.92-.17 1.39.05l.45.19c.47.21.79.55.98 1.02.18.47.17.94-.05 1.41-3.07 6.59-7.34 9.89-12.8 9.89z"/><path d="m381.45 22.72c-1.49-.96-2.41-1.66-2.75-2.1s-.51-1.15-.51-2.13.18-1.69.53-2.13 1.35-1.19 2.99-2.26c2.03-1.32 5.39-3.94 10.08-7.84.41-.34.86-.5 1.36-.46.5.03.93.23 1.3.59l.42.42c.34.34.5.76.48 1.26s-.22.9-.61 1.2c-4.89 3.99-8.2 6.54-9.95 7.65-.79.49-1.27.82-1.44.98s-.26.36-.26.59.07.43.22.58.6.47 1.34.96c1.92 1.28 5.65 4.27 11.2 8.96.36.32.55.71.58 1.18.02.47-.14.89-.48 1.25l-.45.48c-.36.36-.8.55-1.31.56s-.96-.15-1.34-.5c-5.27-4.65-9.07-7.73-11.39-9.25z"/><path d="m407.56 32.55c-.38-.28-.61-.65-.67-1.1-.06-.46.04-.87.32-1.23.73-.98 1.42-2.08 2.08-3.3.23-.41.57-.68.99-.83.43-.15.85-.12 1.28.1.43.21.71.54.86.98s.12.87-.1 1.3c-.77 1.49-1.51 2.74-2.24 3.74-.28.41-.67.64-1.17.7s-.96-.05-1.36-.35zm10.95-9.06c0 .49-.18.91-.53 1.25s-.77.51-1.26.51h-7.14c-.49 0-.91-.17-1.26-.51s-.53-.76-.53-1.25v-16.09c0-.49.18-.91.53-1.26s.77-.53 1.26-.53h7.14c.49 0 .91.18 1.26.53s.53.77.53 1.26v16.1zm-3.56-12.41v-1.92c0-.17-.1-.26-.29-.26h-2.78c-.19 0-.29.08-.29.26v1.92c0 .19.1.29.29.29h2.78c.19 0 .29-.1.29-.29zm0 5.34v-1.92c0-.19-.1-.29-.29-.29h-2.78c-.19 0-.29.1-.29.29v1.92c0 .17.1.26.29.26h2.78c.19 0 .29-.08.29-.26zm0 5.31v-1.92c0-.17-.1-.26-.29-.26h-2.78c-.19 0-.29.08-.29.26v1.92c0 .19.1.29.29.29h2.78c.19 0 .29-.1.29-.29zm1.6 10.18c-.75-1.28-1.45-2.4-2.11-3.36-.26-.36-.34-.76-.26-1.2s.32-.76.7-.98c.43-.23.87-.3 1.33-.21.46.1.83.34 1.1.72.55.79 1.27 1.92 2.14 3.39.24.41.29.83.16 1.28s-.39.78-.8.99c-.41.23-.83.29-1.28.16s-.78-.39-.99-.8zm17.64-15.84c.49 0 .91.17 1.25.51s.51.76.51 1.25-.17.91-.51 1.26-.76.53-1.25.53h-2.66c-.19 0-.29.09-.29.26v8.16c0 .88-.01 1.56-.03 2.05s-.1.96-.22 1.39c-.13.44-.27.75-.43.93s-.43.34-.82.48-.78.22-1.2.24-1 .03-1.74.03c-.47 0-1.41-.03-2.82-.1-.49-.02-.92-.21-1.28-.58s-.57-.79-.61-1.28c-.02-.47.13-.87.46-1.22.33-.34.74-.5 1.23-.48.38.02.83.04 1.34.06s.83.03.96.03c.49 0 .78-.06.86-.19s.13-.55.13-1.28v-8.26c0-.17-.1-.26-.29-.26h-5.54c-.49 0-.91-.18-1.25-.53s-.51-.77-.51-1.26.17-.91.51-1.25.76-.51 1.25-.51h12.93zm-6.28-11.39c.49 0 .91.17 1.25.51s.51.76.51 1.25v1.18c0 .19.1.29.29.29h4c.49 0 .91.17 1.26.51s.53.76.53 1.25v3.46c0 .49-.18.91-.53 1.26s-.77.53-1.26.53h-.45c-.49 0-.91-.18-1.26-.53s-.53-.77-.53-1.26v-1.6c0-.19-.09-.29-.26-.29h-7.58c-.17 0-.26.1-.26.29v1.6c0 .49-.18.91-.53 1.26s-.77.53-1.26.53h-.35c-.49 0-.91-.18-1.26-.53s-.53-.77-.53-1.26v-3.46c0-.49.18-.91.53-1.25s.77-.51 1.26-.51h3.65c.17 0 .26-.1.26-.29v-1.18c0-.49.18-.91.53-1.25s.77-.51 1.26-.51h.74z"/><path d="m449.07 30.24c-1.6 0-2.93-.68-3.98-2.03-1.06-1.35-1.58-3.17-1.58-5.46 0-1.83.41-3.55 1.22-5.15s1.94-2.99 3.39-4.16c.13-.08.17-.22.13-.42-.3-1.02-.66-2.37-1.09-4.03-.13-.47-.06-.93.21-1.38s.64-.72 1.14-.83l.29-.06c.47-.11.92-.03 1.36.24s.71.65.82 1.14c.06.28.18.75.35 1.42s.3 1.18.38 1.52c.04.19.15.25.32.16 2.07-.83 4.29-1.25 6.66-1.25.41 0 .71.01.93.03.21 0 .34-.08.38-.26.3-1.04.54-2.02.74-2.91.11-.49.37-.88.8-1.17s.89-.39 1.38-.3l.48.06c.49.09.87.33 1.15.74s.36.84.26 1.31c-.32 1.32-.59 2.38-.8 3.17-.04.17 0 .29.16.35 2.09.85 3.73 2.17 4.91 3.94s1.78 3.82 1.78 6.14c0 2.75-.81 5.04-2.43 6.88-1.62 1.83-3.95 3.12-6.98 3.87-.49.13-.96.05-1.39-.22-.44-.28-.73-.67-.88-1.18l-.03-.13c-.13-.45-.06-.88.19-1.3.26-.42.62-.69 1.09-.82 2.07-.55 3.65-1.44 4.74-2.66s1.63-2.7 1.63-4.45c0-3.18-1.24-5.38-3.71-6.59-.17-.08-.28-.03-.32.16-1.79 5.12-3.89 9-6.3 11.65s-4.86 3.97-7.36 3.97zm.25-12.7c-1.32 1.56-1.98 3.3-1.98 5.22 0 1.09.2 1.95.61 2.58s.88.94 1.44.94c.77 0 1.62-.39 2.56-1.18.15-.11.18-.25.1-.42-.92-2.52-1.73-4.9-2.43-7.14-.02-.06-.06-.09-.13-.08-.06.01-.12.04-.16.08zm9.15-3.94c-2.03.02-3.85.42-5.47 1.18-.15.06-.2.18-.16.35.68 2.28 1.34 4.32 1.98 6.11.02.04.06.07.11.08s.1 0 .14-.05c1.28-2.03 2.46-4.51 3.55-7.46.04-.15-.01-.22-.16-.22z"/><path d="m477.71 21.64-.03-.06c-.21-.47-.23-.95-.05-1.44s.5-.85.94-1.09c5.93-3.11 10.97-6.03 15.1-8.74.02 0 .03-.01.03-.03s-.02-.03-.06-.03c-3.26.41-6.98.66-11.14.77-.49.02-.92-.15-1.28-.51s-.54-.79-.54-1.28v-.22c0-.49.18-.92.54-1.28s.79-.54 1.28-.54c4.88-.04 9.61-.22 14.18-.54.51-.02.96.13 1.36.45.39.32.62.73.69 1.22l.13 1.09c.17 1.17-.26 2.1-1.28 2.78-.58.36-3.16 1.86-7.74 4.48-.02 0-.03.01-.03.03s.02.03.06.03c1.11-.26 2.13-.38 3.07-.38 2.65 0 4.72.66 6.22 1.97s2.26 3.06 2.26 5.23c0 2.65-1.09 4.76-3.26 6.35-2.18 1.59-5.17 2.38-8.99 2.38-2.56 0-4.55-.49-5.97-1.46s-2.13-2.27-2.13-3.89c0-1.3.61-2.41 1.84-3.31 1.23-.91 2.8-1.36 4.72-1.36 2.09 0 3.68.41 4.77 1.23s1.63 1.97 1.63 3.44c0 .17-.02.45-.06.83 0 .06.02.12.05.16s.08.05.14.03c2.01-.92 3.01-2.33 3.01-4.22 0-2.9-2.19-4.35-6.56-4.35-1.49 0-3.01.22-4.56.67s-3.54 1.26-5.97 2.43c-.45.21-.9.24-1.36.08s-.79-.46-1.01-.91zm12.41 6.91c.11-.4.16-.84.16-1.31 0-1.28-.89-1.92-2.66-1.92-.88 0-1.55.15-2.02.45s-.7.67-.7 1.12c0 1.3 1.45 1.95 4.35 1.95h.51c.19 0 .31-.1.35-.29z"/></g></svg>